# xmcd
#
# Track frame offsets: 
#        150
#        18987
#        40437
#        61910
#        91590
#        110290
#        126400
#        152115
#        175400
#        203907
#
# Disc length: 3111 seconds
#
# Revision: 0
# Processed by: cddbd v1.4PL0 Copyright (c) Steve Scherf et al.
# Submitted via: ExactAudioCopy v0.90b4
#
DISCID=800c250a
DTITLE=Liu Xin - The Tree
DYEAR=1997
DGENRE=New Age
TTITLE0=Improvised_melody
TTITLE1=Sol_Sol
TTITLE2=Xiao_Piccolo
TTITLE3=The_Tree_I
TTITLE4=The_Tree_II
TTITLE5=The_Tree_III
TTITLE6=Dancing
TTITLE7=Naturl_Sound_Of_Xiao_I
TTITLE8=Naturl_Sound_Of_Xiao_II
TTITLE9=Loney_GOD
EXTD=
EXTT0=
EXTT1=
EXTT2=
EXTT3=
EXTT4=
EXTT5=
EXTT6=
EXTT7=
EXTT8=
EXTT9=
PLAYORDER=
